<?xml version="1.0" encoding="UTF-8"?>
<svg width="752pt" height="752pt" version="1.1" viewBox="0 0 752 752" xmlns="http://www.w3.org/2000/svg">
 <path d="m565.17 202.36h-378.33c-19.734 0-35.785 16.051-35.785 35.781v213.86c0 19.73 16.051 35.785 35.785 35.785h32.824c4.6289 0 8.3945 3.7656 8.3945 8.3945v32.137c0 8.6523 5.1641 16.379 13.156 19.691 2.6523 1.0977 5.4258 1.6328 8.1758 1.6328 5.5352 0 10.957-2.168 15.043-6.2539l53.141-53.145c1.5859-1.5859 3.6914-2.457 5.9375-2.457h241.66c19.73 0 35.785-16.051 35.785-35.785v-213.86c0-19.73-16.055-35.781-35.785-35.781zm12.105 249.64c0 6.6758-5.4297 12.105-12.105 12.105h-241.66c-8.5664 0-16.621 3.3359-22.68 9.3945l-49.098 49.098v-26.418c0-17.684-14.387-32.074-32.074-32.074h-32.824c-6.6719 0-12.102-5.4297-12.102-12.105v-213.86c0-6.6758 5.4297-12.105 12.105-12.105h378.33c6.6758 0 12.105 5.4297 12.105 12.105z"/>
</svg>
