<?xml version="1.0" encoding="UTF-8"?>
<svg width="752pt" height="752pt" version="1.1" viewBox="0 0 752 752" xmlns="http://www.w3.org/2000/svg">
 <path d="m375.26 250.65c-9.1914 0.35547-18.531 4.1758-25.602 11.246l-175.82 176.26c-14.613 14.613-14.613 37.629 0 52.242 14.613 14.613 37.777 14.613 52.391 0l149.77-149.92 149.92 149.92c14.613 14.613 37.777 14.613 52.391 0 7.0703-7.0703 10.805-16.473 10.805-25.902 0-9.4258-3.7344-18.801-10.805-26.34l-178.18-178.19c-6.5977-6.5977-15.672-9.6758-24.863-9.3242zm0 18.941c4.3594-0.35547 8.6289 0.93359 11.691 3.9961l178.18 178.18c7.0703 7.0703 7.0703 18.828 0 25.898-7.0703 7.0703-18.977 7.0703-26.047 0l-163.09-163.09-163.09 163.09c-7.0703 7.0703-18.828 7.0703-25.898 0-3.7695-3.7695-5.1797-8.457-5.1797-13.172 0-4.7109 1.8828-9.3984 5.1797-13.168l175.82-175.82c3.5352-3.5352 8.0703-5.5664 12.43-5.918z"/>
</svg>
